<?xml version="1.0" encoding="utf-8"?>
<!-- Generator: Adobe Illustrator 16.0.0, SVG Export Plug-In . SVG Version: 6.00 Build 0)  -->
<!DOCTYPE svg PUBLIC "-//W3C//DTD SVG 1.1//EN" "http://www.w3.org/Graphics/SVG/1.1/DTD/svg11.dtd">
<svg version="1.1" id="Capa_1" xmlns="http://www.w3.org/2000/svg" xmlns:xlink="http://www.w3.org/1999/xlink" x="0px" y="0px"
	 width="470.436px" height="452.531px" viewBox="0 0 470.436 452.531" enable-background="new 0 0 470.436 452.531"
	 xml:space="preserve">
<g>
	<path fill="#229CFF" d="M243.634,167.764h-27.288v115.898h27.288c32.009,0,57.948-25.939,57.948-57.949
		C301.582,193.715,275.643,167.764,243.634,167.764z"/>
	<path fill="#229CFF" d="M244.172,0C119.212,0,17.907,101.305,17.907,226.266c0,33.358,7.224,65.014,20.174,93.528L0,410.6
		l98.765-10.977c39.332,33.015,90.045,52.907,145.406,52.907c124.962,0,226.265-101.304,226.265-226.265
		C470.437,101.304,369.134,0,244.172,0z M251.103,340.691h-98.421V110.747h98.421c31.739,0,60.488,12.865,81.289,33.677
		c20.812,20.8,33.678,49.536,33.678,81.288C366.068,289.218,314.595,340.691,251.103,340.691z"/>
</g>
</svg>
